# xmcd
#
# Track frame offsets: 
#        150
#        12925
#        31515
#        44677
#        60712
#        80257
#        85742
#        96550
#        107242
#        122785
#        140072
#        155442
#        184105
#        199182
#        208872
#        218668
#
# Disc length: 3160 seconds
#
# Revision: 1
# Processed by: cddbd v1.5.2PL0 Copyright (c) Steve Scherf et al.
# Submitted via: ExactAudioCopy v0.99pb5
#
DISCID=e20c5610
DTITLE=Giant Sand - Is All Over the Map (25th Anniversary Edition)
DYEAR=2000
DGENRE=Rock
TTITLE0=Classico
TTITLE1=NYC of Time
TTITLE2=Remote
TTITLE3=Flying Aroundthe Sun with Remarkable Speed
TTITLE4=Cracklin Water
TTITLE5=Rag
TTITLE6=Muss
TTITLE7=Drab
TTITLE8=Fool
TTITLE9=Les Forcats Innocents
TTITLE10=Napoli
TTITLE11=Hood (View from a Heidelberg Hotel)
TTITLE12=A Classico Reprise
TTITLE13=Anarchistic Bolshevistic Cowboy Bundle
TTITLE14=Play
TTITLE15=A Quiet Remote bonus
EXTD=
EXTT0=
EXTT1=
EXTT2=
EXTT3=
EXTT4=
EXTT5=
EXTT6=
EXTT7=
EXTT8=
EXTT9=
EXTT10=
EXTT11=
EXTT12=
EXTT13=
EXTT14=
EXTT15=
PLAYORDER=
